<?xml version="1.0" encoding="utf-8"?>
<!-- Generator: Adobe Illustrator 26.0.2, SVG Export Plug-In . SVG Version: 6.00 Build 0)  -->
<svg version="1.1" id="Layer_1" xmlns="http://www.w3.org/2000/svg" xmlns:xlink="http://www.w3.org/1999/xlink" x="0px" y="0px"
	 viewBox="0 0 800 800" style="enable-background:new 0 0 800 800;" xml:space="preserve">
<path d="M230.42,686c0.63,3.92,1.18,7.29,1.8,11.15c-11.35-4.59-21.55-10.2-30.68-17.51c-20.01-16.04-37.68-34.15-49.45-57.35
	c-0.95-1.86-0.7-5.78-4.32-4.87c-3.67,0.93-1.66,4.38-1.87,6.68c-0.32,3.5-0.08,7.06-0.08,10.7c-7.16-2.27-30.69-43.32-38.89-67.28
	c-8.6-25.13-11.3-50.9-8.02-77.32c-0.31-0.3-0.62-0.59-0.93-0.89c-1.81,1.1-3.97,1.87-5.38,3.36c-6.13,6.42-12.03,13.06-18.07,19.57
	c-0.78,0.84-1.87,1.4-2.82,2.09c-0.5-1.14-1.18-2.23-1.47-3.43c-3.5-14.61-4.36-29.56-3-44.34c1.51-16.3,5.52-32.27,11.81-47.53
	c2.63-6.38,5.18-12.8,7.74-19.21c0.28-0.7,0.42-1.46,0.95-3.33c-12.44,5.22-20.41,14.66-30.52,23.31c-0.69-2.13-1.85-3.87-1.67-5.47
	c1.59-14.44,2.37-29.08,5.43-43.22c3.45-15.94,9-31.42,13.64-47.1c0.19-0.64,0.39-1.27,0.94-3.04c-2.52,0.74-4.52,0.88-6.01,1.84
	c-5.03,3.25-9.84,6.82-14.8,10.17c-0.91,0.61-2.12,0.77-3.2,1.13c-0.12-0.99-0.46-2.01-0.33-2.96c4.15-30.76,12.88-60.1,27.46-87.59
	c2.47-4.66,4.94-9.33,7.4-14c0.04-0.08-0.08-0.25-0.34-1c-1.23,0.24-2.62,0.31-3.88,0.78c-4.44,1.64-8.82,3.45-13.25,5.1
	c-1.05,0.39-2.25,0.41-3.38,0.6c0.02-1.24-0.31-2.61,0.11-3.69c6.74-17.02,15.89-32.74,25.84-48.06
	c8.74-13.46,20.27-24.32,31.79-35.24c0.99-0.93,1.53-2.33,2.29-3.51c-1.27-0.8-2.49-2.19-3.82-2.32
	c-9.17-0.87-18.37-1.47-27.91-2.18c0.22-0.41,0.59-1.79,1.48-2.62c9.3-8.65,18.33-17.64,28.12-25.71
	c34.21-28.21,74.85-42.28,117.19-52.44c6.99-1.68,13.98-3.39,20.95-5.12c0.47-0.12,0.85-0.59,2.4-1.72
	c-7.91-3.85-15.15-7.38-23.7-11.54c5.21-2.41,9.13-4.86,13.4-6.07c13.67-3.87,27.3-8.29,41.27-10.52
	c10.13-1.62,20.78-0.52,31.16,0.14c11.15,0.7,22.23,2.36,33.36,3.38c1.14,0.11,2.42-1.27,3.63-1.95c-0.67-1.04-1.11-2.61-2.06-3.03
	c-4.92-2.18-9.97-4.06-15.14-6.99c3.13-0.85,6.22-1.98,9.4-2.49c23.69-3.84,47.37-3.61,70.91,1.1c17.37,3.48,34.66,7.37,51.99,11.07
	c0.13,0.03,0.28,0.05,0.41,0.03c1.72-0.31,3.43-0.63,5.14-0.94c-0.71-1.46-1.08-3.32-2.2-4.31c-5.01-4.37-10.23-8.49-16.28-13.44
	c1.96-0.46,3.36-1.21,4.62-1.02c15.62,2.35,31.03,5.92,45.08,13.18c22.32,11.54,43.11,25.52,61.69,42.56
	c3.72,3.41,6.97,7.32,10.64,10.8c0.86,0.82,2.5,0.8,3.79,1.17c0.18-1.43,0.94-3.1,0.45-4.23c-2.03-4.7-4.43-9.24-6.36-14.47
	c5.72,3.78,11.58,7.35,17.12,11.38c16.76,12.19,32.46,25.66,45.18,42.08c7.84,10.12,14.65,21.09,21.29,32.07
	c5.99,9.91,11.65,20.1,16.48,30.61c6.84,14.88,12.7,30.22,19.19,45.27c1.31,3.04,3.16,6.04,5.4,8.46
	c12.02,13,23.65,26.32,32.23,41.9c8.13,14.75,11.91,31.01,15.64,47.27c1.65,7.16,3.44,14.39,6.17,21.19
	c9.35,23.29,9.06,46.86,3.5,70.87c-2.38,10.27-5.91,19.87-12.12,28.45c-3.23,4.47-7.21,7.73-12.47,9.49
	c-0.92,0.31-2.13,1.34-2.26,2.18c-2.01,13.23-4.38,26.43-5.61,39.74c-1.25,13.63-5.18,26.26-11.22,38.38
	c-2.97,5.95-4.42,6.67-10.92,5.33c-1.73-0.36-3.43-0.86-5.63-1.41c-1.5,5.95-2.52,12.02-4.6,17.7c-2.33,6.35-5.27,12.55-8.61,18.43
	c-2.39,4.2-6.55,6.12-11.7,6.44c-2.32,0.14-5.08,2.01-6.67,3.9c-11.66,13.88-15.88,29.69-11.3,47.46c5.25,20.35,8.52,41,7.74,62.02
	c-0.38,10.04-2.02,20.12-4.02,30c-2.09,10.34-8.66,18.15-16.86,24.53c-2.76,2.15-5.9,1.89-8.92,0.37c-1.19-0.6-2.29-1.39-3.77-2.3
	c-1.1,2.81-2.13,5.44-3.16,8.06c-7.18,18.24-18.89,24.79-38.17,20.97c-4.2-0.83-6.81,0.12-10.05,3.1
	c-8.33,7.67-17.16,14.85-26.19,21.7c-3.5,2.65-7.95,4.23-12.18,5.68c-5.19,1.79-8.35,0.69-11.37-3.84
	c-2.04-3.07-4.09-3.64-7.53-2.47c-5.07,1.72-10.39,4.05-15.75,1.67c-2.69-1.19-4.9-3.58-7.13-5.64c-1.6-1.47-2.97-3.22-4.26-4.98
	c-1.89-2.59-3.86-2.26-6.7-1.35c-6.69,2.14-13.53,3.89-20.42,5.26c-5.01,1-6.91-0.9-7.69-6.13c-0.46-3.12-1.51-5-5.45-3.79
	c-3.99,1.23-8.24,1.6-12.37,2.36c-3.19,0.59-5.25-1.22-4.52-4.28c1.35-5.66,2.78-11.3,4.41-16.88c1.46-5.01,0.85-5.8-4.33-5.85
	c-21.13-0.2-42.06-2.47-62.83-6.3c-37.82-6.96-74.53-17.57-109.1-34.62c-13.93-6.87-27.29-14.91-40.92-22.41
	C232.02,686.68,231.54,686.51,230.42,686z M612.68,117.91c-0.56,0.42-1.12,0.84-1.68,1.25c-1.27-0.9-2.75-1.61-3.78-2.73
	c-5.54-6.05-11.03-12.14-16.43-18.32c-25.55-29.23-55.72-52.52-90.24-70.22c-1.38-0.71-3.14-0.67-4.72-0.97
	c0.26,1.88,0.11,3.94,0.86,5.61c1.88,4.23,4.17,8.28,6.71,13.21c-21.56-6.16-41.63-12.89-62.18-17.5
	c-20.87-4.69-42.24-6.25-63.82-2.75c9.68,7.55,19.08,14.89,28.49,22.23c-0.17,0.45-0.34,0.9-0.5,1.34
	c-0.91,0.15-1.87,0.56-2.73,0.41c-11.09-1.98-22.11-4.36-33.25-6.01c-12.9-1.92-25.86-4.07-38.85-4.55
	c-13.74-0.5-27.57,0.55-41.32,1.52c-5.94,0.42-11.77,2.31-17.66,3.53c-0.03,0.4-0.07,0.81-0.1,1.21
	c7.97,5.14,15.95,10.29,23.85,15.39c-62.31,11.32-121.53,28.61-171.63,69.16c2.01,1.03,3.95,1.44,5.88,1.87
	c7.52,1.68,15.07,3.21,22.53,5.13c3.17,0.82,3.23,2.49,0.62,4.79c-4.82,4.25-9.73,8.39-14.44,12.76
	c-18.39,17.02-34.23,36.08-46.36,58.1c-0.47,0.85-0.82,1.76-1.52,3.29c7.08-2.01,13.4-3.97,19.82-5.51c1.89-0.45,4.06,0.29,6.1,0.48
	c0.1,0.46,0.2,0.92,0.3,1.38c-24.16,29.6-41.33,62.74-51.95,100.48c2.31-1.2,3.47-1.93,4.72-2.42c6.18-2.42,12.33-4.94,18.61-7.1
	c2.82-0.97,5.88-1.06,8.05,1.52c-14.6,28.64-27.45,57.52-26.37,90.11c11.51-5.38,22.43-10.52,33.39-15.54
	c0.91-0.42,2.18-0.06,3.28-0.07c-0.02,1.13,0.24,2.35-0.12,3.36c-3.88,10.98-8.05,21.86-11.77,32.89
	c-6.74,19.99-13,40.13-14.87,61.3c-0.35,3.96-0.4,7.94-0.6,12.32c11.76-8.67,22.74-16.75,33.71-24.84c0.35,0.28,0.69,0.55,1.04,0.83
	c-5.24,49.48,0.92,96.87,24.62,141.02c0.67,0.09,1.34,0.18,2.01,0.26c2.12-6.24,4.24-12.48,6.37-18.71
	c20.05,35.13,39.18,70.08,76.01,90.34c1.38-5.05-1.45-10.73,2.54-15.29c33.11,25.08,69.9,41.91,109.1,53.75
	c39.26,11.86,79.22,19.16,120.91,18.18c-2.32-11.47-4.55-21.98-6.56-32.53c-2.93-15.37-6.53-30.68-8.32-46.19
	c-2.03-17.64-7.31-33.52-19.05-46.97c-10.68-12.23-18.58-25.91-22.84-41.66c-1.78-6.57-3.95-13.03-6.09-19.49
	c-4.18-12.66-7.62-25.54-15.69-36.67c-4.28-5.9-7.39-12.75-10.34-19.48c-4.58-10.45-10.57-19.71-19.4-27.06
	c-4-3.33-7.82-6.87-11.61-10.43c-14.33-13.44-23.93-30.06-32.08-47.69c-14.18-30.66-22.08-62.6-20.18-96.6
	c0.52-9.23,2.95-18,6.85-26.36c6.4-13.71,17.24-23.84,27.72-34.28c18.15-18.06,36.18-36.23,54.28-54.34
	c10.64-10.65,20.6-22.11,32.11-31.71c22.62-18.87,50.46-22.74,78.65-24.78c9.4-0.68,18.42,1.25,27.46,3.55
	c10.52,2.67,20.8,6.35,31.89,6.75c5.31,0.19,10.76,1.72,15.79,3.6c14.3,5.35,25.09,15.22,33.92,27.5
	c9.02,12.54,20.66,21.4,35.41,26.72c10.48,3.79,20.55,8.88,30.39,14.17c19.43,10.44,37.38,22.53,43.92,45.56
	c0.45,1.6,1.87,2.99,3.05,4.29c0.69,0.77,1.7,1.47,2.69,1.71c9.42,2.33,17.45,7.31,25.48,12.8c-2.12-5.01-3.99-10.25-7.15-14.53
	c-8.21-11.09-16.67-22.05-25.68-32.49c-4.52-5.24-8.08-10.41-10.52-17.07c-5.38-14.72-11.97-29.01-18.25-43.39
	c-15.04-34.47-37.51-63.66-64.19-89.83c-1.13-1.11-2.32-2.17-3.47-3.25c-0.19,0.13-0.38,0.27-0.57,0.4
	C606.19,95.74,609.43,106.82,612.68,117.91z M433.12,259.15c-0.72-4.81,2.2-7.12,5.17-9.25c12-8.6,25.68-12.77,40.16-13.84
	c23.89-1.77,44.62,6.46,62.22,22.22c13.2,11.83,27.94,16.02,45.02,11.56c12.53-3.27,24.95-6.96,37.46-10.3
	c8.21-2.2,16.51-3.32,25.12-2.58c11.2,0.96,21.48,4.81,31.82,8.73c2.9,1.1,5.96,1.79,9.8,2.92c-4.3-10.94-8.72-19.87-18.12-26.03
	c-15.61-10.22-31.59-19.63-49.11-26.09c-14.18-5.23-26.55-12.75-35.74-25.05c-3.68-4.93-7.51-9.81-11.79-14.22
	c-8.82-9.1-18.97-15.65-32.11-17.28c-10.22-1.26-20.26-3.92-30.38-5.95c-9.19-1.84-18.13-5.45-27.74-4.49
	c-9.5,0.95-18.99,2-28.44,3.33c-21.69,3.05-40.34,12.28-55.6,28.07c-10.19,10.54-20.11,21.34-30.43,31.74
	c-17.85,17.98-35.98,35.67-53.87,53.61c-7.47,7.49-14.02,15.64-17.94,25.72c-6.19,15.92-4.59,32.31-2.95,48.58
	c1.78,17.71,6.94,34.64,13.72,51.12c9.92,24.08,22.54,46.13,43.47,62.62c11.63,9.16,19.55,21.17,25.03,34.96
	c2.25,5.66,5.34,11.11,8.79,16.14c5.24,7.63,9.29,15.72,12.08,24.5c2.56,8.04,5.51,15.99,7.63,24.14
	c4.97,19.08,13.19,36.23,26.52,51.06c7.34,8.16,12.39,18.08,14.98,28.87c1.74,7.26,2.45,14.75,3.85,22.1
	c4.47,23.52,8.91,47.05,13.65,70.52c2.35,11.65,3.34,22.9-4.05,33.32c-0.58,0.82-0.48,3.15,0.14,3.58c0.98,0.68,2.9,0.85,4.01,0.35
	c3.82-1.74,7.47-3.87,11.12-5.82c5.08,2.34,6.24,6.99,6.91,12.01c2.39-0.89,4.38-1.39,6.14-2.33c3-1.59,5.96-3.3,8.74-5.23
	c2.39-1.66,4.32-1.98,6.41,0.41c3.06,3.49,6.43,6.73,9.4,10.29c5.25,6.28,5.16,6.35,12.61,2.74c0.25-0.12,0.49-0.25,0.73-0.38
	c10.31-5.3,11.78-5.01,19.44,3.83c0.16,0.18,0.46,0.24,0.7,0.34c19.18-7.62,51.02-46.92,54.26-58.65c-2.4,0.71-4.67,1.54-7.01,2.02
	c-2.53,0.52-5.12,0.84-7.7,1.04c-24.31,1.94-47.37-3.29-69.31-13.24c-18.75-8.5-34.7-20.65-42.72-40.46
	c-4.63-11.44-8.32-23.29-11.94-35.11c-3.14-10.25-5.24-20.82-8.42-31.05c-2.46-7.89-6.52-15.31-8.75-23.25
	c-4.13-14.75-3.06-29.81-0.6-44.73c4.88-29.61,16.75-56.66,30.89-82.84c8.75-16.21,20.24-30.43,34.26-42.16
	c20.92-17.49,45.15-27.45,72.85-27.35c17.39,0.06,34.78,0.56,52.17,0.88c11.77,0.22,23.54,0.65,35.32,0.64
	c6.99-0.01,13.92-0.9,20.11-4.69c4.09-2.5,5.43-5.37,4.02-9.95c-2.74-8.92-8.01-16.3-14.17-23.21
	c-15.84-17.77-32.14-35.09-51.4-49.25c-10.6-7.79-22.64-12.78-35.81-13.9c-11.88-1.01-22.87,2.56-33.32,8.27
	c-13.93,7.62-24.1,19.21-33.93,31.2c-6.72,8.19-14.39,14.97-24.7,18.28c-2.82,0.9-5.21,0.74-7-1.41c6.66-6.97,13.4-13.39,19.4-20.44
	c12.27-14.4,24.13-29.15,41.31-38.2c0.37-0.2,0.65-0.57,0.97-0.87c-0.18-0.31-0.36-0.61-0.54-0.92c-1.31,0.72-2.67,1.37-3.93,2.17
	c-7.85,4.98-16.33,8.29-25.59,9.22c-18.07,1.81-34.73-2.46-49.9-12.36c-8.31-5.43-16.03-11.51-19.36-21.45
	c-2.16-6.46-2.12-6.52-8.8-4.19C443.39,255.47,438.44,257.26,433.12,259.15z M617.64,396.58c-5.64-0.27-12.62-1.06-19.58-0.85
	c-12.9,0.39-25.96,0.31-38.63,2.39c-12.54,2.06-23.24,9.53-33.8,16.44c-12.55,8.21-22.68,19.13-30.7,31.52
	c-20.76,32.07-35.97,66.41-39.39,105.09c-1.14,12.92,0.6,25.16,6.1,37.09c3.45,7.48,5.65,15.57,7.98,23.51
	c4.6,15.63,8.65,31.43,13.41,47.01c4.65,15.24,14.22,26.89,27.9,35.06c22.25,13.28,46.28,19.48,72.27,19
	c19.01-0.35,28.06-11.75,30.75-29.45c-12.47,4.33-14.87,4.13-18.75-0.82c-2.99-0.25-5.42,0.04-7.46-0.72
	c-3.58-1.33-6.76-3.9-10.39-4.86c-4.47-1.19-9.44-2.37-13.84-1.59c-7.69,1.36-10.88,0.39-13.79-7c-1.41,1.12-2.77,2.25-4.18,3.32
	c-7.88,5.97-15.63,4.12-20.06-4.77c-3.97-7.95-2.68-16.61,3.82-23.85c3.56-3.97,7.76-7.41,11.05-11.58c3.42-4.34,6.33-9.14,8.99-14
	c1.45-2.65,2.58-5.16,6.02-5.26c3.34-0.1,4.79,2.27,5.91,4.85c2.83,6.51,2.85,13.43,1.7,20.15c-1.25,7.28-3.56,14.38-5.18,20.68
	c9.85,1.54,20.33,3.17,31.26,4.87c-1.04-1.93-1.84-3.34-2.56-4.79c-1.66-3.31-1.16-6.47,1.23-9.15c2.35-2.63,5.14-1.82,7.88-0.45
	c7.31,3.63,14.2,1.14,20.98-1.06c0.43-3.72,0.99-6.96,1.14-10.22c0.86-19.07,3.93-37.78,10.46-55.72
	c14.34-39.35,35.13-75.32,59.27-109.36c4.32-6.09,10.79-10.64,16.12-16.05c0.76-0.77,1.19-2.46,0.94-3.53
	c-1.83-7.79-3.83-15.53-5.9-23.26c-0.24-0.9-1.08-2.08-1.88-2.32c-2.95-0.86-6.05-1.23-9-2.07c-5.21-1.48-10.37-3.18-15.93-4.91
	c-1.45,1.14-3.44,3.06-5.76,4.45c-3.66,2.19-7.71,0.34-7.96-3.6c-0.51-7.89-0.77-15.79-1.15-24.04c-10.25,0-19.87,0-28.14,0
	c1.31,0.35,3.91,1.05,6.52,1.71c4.26,1.08,5.77,3.09,5.23,7.27c-0.43,3.38-0.88,6.77-1.5,10.12c-3.61,19.55-9.16,38.51-19.59,55.57
	c-3.19,5.22-8.14,9.43-12.6,13.79c-1.92,1.87-4.99,3.47-7.38,1.19c-1.87-1.77-3.67-4.65-3.72-7.08c-0.12-5.42,1.04-10.85,1.37-16.29
	c1.14-18.28,2.97-36.55,0.94-54.89c-0.61-5.47,0.57-7.12,5.9-8.57C608.89,398.22,613.94,397.37,617.64,396.58z M628.87,639.26
	c1.09-0.14,1.42-0.08,1.58-0.22c1.54-1.35,2.85-3.15,4.62-4.01c1.89-0.92,4.51-1.8,6.24-1.16c1.78,0.66,3.3,3.01,4.1,4.95
	c0.61,1.46,0.14,3.52-0.26,5.22c-2.58,11.01-7.88,20.54-15.82,28.63c-1.05,1.07-1.98,2.55-2.29,3.98
	c-0.95,4.37-0.99,9.02-2.45,13.19c-2.37,6.77-6.43,13.01-8.25,19.88c-3.26,12.31-9.86,22.58-17.21,32.58
	c-1.65,2.24-3.4,4.39-5.29,6.83c2.58,0.55,4.61,0.85,6.55,1.42c8.45,2.48,15.61-0.14,19.7-7.95c2.89-5.52,5.22-11.35,7.39-17.2
	c0.83-2.22,1.75-3.01,4.03-2.9c3.42,0.16,6.85-0.11,10.27,0.09c3.12,0.18,5.46-0.93,6.65-3.72c1.97-4.61,4.37-9.19,5.37-14.03
	c4.78-23.09,2.1-46.01-2.75-68.74c-2.62-12.29-6.07-24.35-3.8-37.18c2.53-14.29,8.37-26.83,18.52-37.24
	c3.69-3.79,7.93-6.97,13.56-6.71c2.89,0.13,4.02-1.15,5.12-3.51c5.05-10.89,8.74-22.2,10.27-34.1c0.51-4,2.65-4.6,5.84-4.38
	c3.67,0.25,7.33,0.67,11,0.7c1.11,0.01,2.96-0.82,3.23-1.67c1.24-3.88,2.05-7.91,3.11-12.29c-8.01,1.75-11.92-0.74-13.17-7.97
	c-0.5-2.91-0.2-5.96-0.21-8.95c-0.02-4.1-0.01-8.2-0.01-13.19c-4.83,6.09-9.72,11.15-13.32,17c-10.93,17.77-21.81,35.61-31.89,53.87
	c-12.63,22.88-23.32,46.63-27.2,72.83C630.82,621.86,629.95,630.47,628.87,639.26z M699.64,335.77c-0.49-0.12-0.99-0.25-1.48-0.37
	c0.82-2.97,1.34-6.07,2.52-8.89c3.48-8.32,0.38-12.69-4.79-16.8c-6.3-5-13.64-7.95-21.47-9.52c-6.78-1.36-11.04,1.55-12.34,8.18
	c-0.18,0.93,0.22,2.32,0.87,3.01c6.77,7.16,13.72,14.16,20.48,21.33c8.38,8.88,16.14,18.22,21.11,29.55
	c6.21,14.13,2.08,24.96-12.28,30.76c-5.25,2.12-10.96,3.08-16.16,4.49c0.77,2.55,1.65,5.45,2.24,7.41c3.6,1.12,6.69,2.07,9.77,3.05
	c0.61,0.19,1.2,0.67,1.79,0.65c3.54-0.08,6.4,3.2,10.28,1.86c1.24-0.43,2.92,0.63,4.4,0.64c2.52,0.01,5.05-0.28,7.57-0.45
	c2.6-1.42,5.61-3.52,8.31-3.18c1.73,0.22,3.01,4.04,4.96,6.95c11.6,1.62,8.68,2.37,11.03,14.88c0.75-0.35,1.71-0.48,2.1-1.02
	c3.66-5.11,3.28-13.34-1.28-18.24c-3.14-3.37-6.87-6.19-10.41-9.17c-12.74-10.7-19.46-20.55-11.21-39.81
	c3.42-7.99,8.06-15.45,11.8-23.31c3.09-6.49,5.69-13.22,8.51-19.84c-0.67-0.38-1.33-0.76-2-1.14c-4.25,5.6-8.5,11.2-12.6,16.61
	c-1.57-4.89-1.79-10.42,1.25-14.96c2.87-4.28,7.08-7.67,10.92-11.68c-13.47-6.96-28.36-9.1-44.04-11.1c4.72,3.2,8.97,5.64,12.7,8.7
	C713.27,313.45,711.98,328.15,699.64,335.77z M723.43,293.53c-6.65-6.14-14.38-9.98-23.05-11.5c-11.97-2.11-23.62-5.1-34.95-9.63
	c-12.91-5.16-26.29-5.78-39.76-1.9c-5.36,1.54-10.7,3.11-16.05,4.67c17.71,5.56,31.48,16.44,44.88,28.5
	c5.14-11.14,14.54-15.92,25.68-16.3c8.75-0.3,17.61,1.28,26.36,2.49C712.23,290.64,717.8,292.27,723.43,293.53z M744.68,328.78
	c-2.09,4.44-3.89,8.52-5.89,12.49c-4.3,8.51-8.92,16.87-12.99,25.48c-3.88,8.21-2.51,15.62,4.56,21.77
	c6.89,5.99,13.66,12.12,20.19,17.93C755.91,385.8,760.08,366.95,744.68,328.78z M607.08,472.04c13.29-19.53,19.09-41.3,23.07-64.18
	c-7.45-2.06-14.4-0.66-20.41,0.68C608.84,429.88,607.98,450.59,607.08,472.04z M714.39,488.49c5.99-3.93,7.66-5.67,9.31-12.76
	c2.03-8.72,4.11-17.56,4.78-26.45c0.65-8.59-0.47-17.32-0.81-25.99c-0.7-0.16-1.39-0.31-2.09-0.47c-0.65,1.26-1.23,2.56-1.95,3.78
	c-1.5,2.54-2.54,5.91-4.78,7.3c-1.92,1.19-5.26,0.11-7.77,0.04C716.54,450.96,715.84,469.36,714.39,488.49z M528.12,262.54
	c-2.79-1.85-5.31-3.69-8.01-5.26c-2.7-1.57-5.6-2.78-8.34-4.29c-2.61-1.45-4.27-0.53-5.83,1.7c-4.41,6.3-4.82,16.39-0.57,22.74
	c0.82,1.22,2.42,2.65,3.71,2.7c6.26,0.25,12.62,0.7,18.78-0.15c5.2-0.72,10.16-3.12,15.93-5c-3.82-2.96-6.58-5.1-9.3-7.2
	c-7.87,7.6-12.29,9.25-17.92,6.62c-2.16-1.01-3.94-2.45-3.11-5.35C521.81,271.07,523.36,270.4,528.12,262.54z M467.46,249.56
	c-0.33,9.48,14.93,23.83,27.71,26.03c-1.95-9.25-1.37-18.12,4.31-26.1C492.79,246.43,477.08,246.54,467.46,249.56z M605.12,675.77
	c12.3-4.45,21.04-12.34,26.19-24.15c-9.53,5.88-19.81,8.77-30.66,8.92C602.14,665.63,603.58,670.53,605.12,675.77z M553.45,632.57
	c-5.5,5.77-10.64,11.16-15.78,16.56c-0.75,0.79-1.54,1.57-2.18,2.45c-3.09,4.23-2.29,10.33,1.94,13.46
	C548.89,657.48,551.73,645.62,553.45,632.57z M677.79,415.3c4.61,1.34,8.57,2.49,12.52,3.65c3.48,1.02,6.93,2.19,10.45,3
	c1.47,0.34,3.35,0.4,4.62-0.24c3.26-1.65,5.74-1.32,7.72,1.82c0.96,1.52,1.94,3.04,2.9,4.56c0.46-0.04,0.92-0.08,1.38-0.12
	c0.31-4.36,0.63-8.71,1.01-14.12c-7.22,6.67-7.22,6.67-12,3.66c-2.53,0.19-4.98-0.16-7.43-0.46c-0.78-0.09-1.61,0.08-2.36-0.1
	c-4.03-0.94-8.08-1.82-12.04-3c-2.3-0.69-4.45-1.91-7.66-3.34C677.44,413.37,677.65,414.52,677.79,415.3z M587.5,671.94
	c-1.72-4-1.69-3.84-5.93-3.05c-1.21,0.23-2.65-0.7-3.96-1.17c-0.8-0.29-1.52-0.91-2.33-1.07c-4.5-0.85-9.01-1.86-13.56-2.24
	c-1.55-0.13-3.33,1.23-4.79,2.23c-0.45,0.31-0.19,1.66-0.26,2.53c1.56,0.1,3.13,0.37,4.68,0.26c3.22-0.23,6.68-1.6,9.58-0.81
	c6.91,1.88,13.55,4.75,20.66,7.35c0.44-1.19,1.06-2.9,2.08-5.68C591.07,670.99,589.4,671.43,587.5,671.94z M664.68,417.33
	c0.31,0.18,0.61,0.35,0.92,0.53c1.86-2.84,4.24-5.48,5.39-8.58c0.83-2.24,1.01-5.93-0.29-7.43c-1.39-1.6-4.87-1.4-7.68-2.04
	C663.64,406.41,664.16,411.87,664.68,417.33z"/>
</svg>
